<svg version="1.2" xmlns="http://www.w3.org/2000/svg" viewBox="0 0 364 364" width="35" height="35">
	<title>instagram-3-svg</title>
	<style>
		.s0 { fill: #fff } 
	</style>
	<g id="Layer">
		<path id="Layer" fill-rule="evenodd" class="s0" d="m280.6 119.6v124.8c0 20-16.2 36.2-36.2 36.2h-124.8c-19.9 0-36.2-16.2-36.2-36.2v-124.8c0-19.9 16.3-36.2 36.2-36.2h124.8c20 0 36.2 16.3 36.2 36.2zm-33.7 62.4c0-35.8-29.1-64.9-64.9-64.9-35.8 0-64.9 29.1-64.9 64.9 0 35.8 29.1 64.9 64.9 64.9 35.8 0 64.9-29.1 64.9-64.9zm17.4-66.8c0-8.5-6.9-15.4-15.3-15.4-8.5 0-15.4 6.9-15.4 15.4 0 8.4 6.9 15.3 15.4 15.3 8.4 0 15.3-6.9 15.3-15.3z"/>
		<path id="Layer" fill-rule="evenodd" class="s0" d="m182 144.5c-20.7 0-37.5 16.8-37.5 37.5 0 20.7 16.8 37.5 37.5 37.5 20.7 0 37.5-16.8 37.5-37.5 0-20.7-16.8-37.5-37.5-37.5z"/>
		<path id="Layer" fill-rule="evenodd" class="s0" d="m364 0v364h-364v-364zm-56 119.6c0-35.1-28.5-63.6-63.6-63.6h-124.8c-35.1 0-63.6 28.5-63.6 63.6v124.8c0 35.1 28.5 63.6 63.6 63.6h124.8c35.1 0 63.6-28.5 63.6-63.6z"/>
	</g>
</svg>