<svg version="1.2" xmlns="http://www.w3.org/2000/svg" viewBox="0 0 455 455" width="35" height="35">
	<title>telegram-svg</title>
	<style>
		.s0 { fill: #fff } 
	</style>
	<g id="Layer">
		<path id="Layer" fill-rule="evenodd" class="s0" d="m455 0v455h-455v-455zm-81.6 91l-297.9 114.9c-7.4 2.8-7.3 13.2 0.1 16l72.5 27.1 28.1 90.3c1.8 5.8 8.9 7.9 13.6 4.1l40.5-33c4.2-3.4 10.2-3.6 14.7-0.4l73 53c5 3.6 12.1 0.9 13.4-5.2l53.4-257.1c1.4-6.7-5.1-12.2-11.4-9.7z"/>
		<path id="Layer" fill-rule="evenodd" class="s0" d="m313.6 147.2l-141.9 87.3c-5.4 3.4-8 10-6.2 16.1l15.3 53.9c1.1 3.8 6.6 3.4 7.2-0.5l4-29.6c0.7-5.5 3.4-10.7 7.5-14.5l117-108.8c2.2-2-0.4-5.5-2.9-3.9z"/>
	</g>
</svg>