<svg version="1.2" xmlns="http://www.w3.org/2000/svg" viewBox="0 0 68 68" width="23" height="23">
	<title>cancel 1-svg</title>
	<defs>
		<clipPath clipPathUnits="userSpaceOnUse" id="cp1">
			<path d="m0 0h68v68h-68z"/>
		</clipPath>
	</defs>
	<style>
		.s0 { fill: #ffffff } 
	</style>
	<g id="Clip-Path" clip-path="url(#cp1)">
		<g id="Layer">
			<path id="Layer" class="s0" d="m37.8 34l29.4-29.5c1.1-1 1.1-2.7 0-3.7-1-1.1-2.7-1.1-3.7 0l-29.5 29.4-29.5-29.4c-1-1.1-2.7-1.1-3.7 0-1.1 1-1.1 2.7 0 3.7l29.4 29.5-29.4 29.5c-1.1 1-1.1 2.7 0 3.7 0.5 0.5 1.2 0.8 1.9 0.8 0.6 0 1.3-0.3 1.8-0.8l29.5-29.4 29.5 29.4c0.5 0.5 1.2 0.8 1.8 0.8 0.7 0 1.4-0.3 1.9-0.8 1.1-1 1.1-2.7 0-3.7z"/>
		</g>
	</g>
</svg>