<svg version="1.2" xmlns="http://www.w3.org/2000/svg" viewBox="0 0 535 534" width="64" height="64">
	<title>notepad-svg</title>
	<style>
		.s0 { fill: #ffffff } 
	</style>
	<path id="Layer" fill-rule="evenodd" class="s0" d="m450.7 104.9v356.2c0 30.3-24.6 54.9-54.9 54.9h-264.9c-30.3 0-54.9-24.6-54.9-54.9v-356.2c0-30.3 24.6-54.9 54.9-55h80.4c9.1-20.6 29.5-33.9 52.1-33.9 22.5 0 42.9 13.3 52.1 33.9h80.3c30.3 0.1 54.9 24.7 54.9 55zm-255.2-30v11c0 16.5 13.4 29.9 29.9 29.9h75.9c16.5 0 29.9-13.4 29.9-29.9v-11h-24.8c-5.9 0-10.9-4-12.2-9.8-3.1-13.9-16-24.1-30.8-24.1-14.8 0-27.8 10.2-30.9 24.1-1.2 5.8-6.3 9.8-12.2 9.8zm230.2 30c0-16.6-13.4-29.9-29.9-30h-39.6v11c0 30.3-24.6 54.9-54.9 54.9h-75.9c-30.3 0-54.9-24.6-54.9-54.9v-11h-39.6c-16.5 0.1-29.9 13.4-29.9 30v356.2c0 16.5 13.4 29.9 29.9 29.9h264.9c16.5 0 29.9-13.4 29.9-29.9z"/>
	<path id="Layer" class="s0" d="m325.2 247l-82 80.1-41.7-40.7c-4.9-4.8-12.8-4.7-17.6 0.1-4.8 4.9-4.9 12.7 0 17.6l0.1 0.2 50.4 49.2c4.9 4.7 12.6 4.7 17.5 0l90.8-88.6c4.9-4.9 5-12.8 0.2-17.7-4.8-4.9-12.7-5-17.7-0.2z"/>
</svg>