<svg version="1.2" xmlns="http://www.w3.org/2000/svg" viewBox="0 0 25 25" width="25" height="25">
	<title>menu-symbol-of-three-parallel-lines-svg</title>
	<style>
		.s0 { fill: #000000 } 
	</style>
	<g id="Layer">
		<path id="Layer" fill-rule="evenodd" class="s0" d="m0 3.9c0-1.1 0.9-2 2-2h20.8c1.1 0 1.9 0.9 1.9 2 0 1.1-0.8 2-2 2h-20.7c-1.1 0-2-0.9-2-2zm24.8 8.5c-0.1 1.1-0.9 2-2.1 2h-20.7c-1.1 0-2-0.9-2-2 0-1.1 0.9-2 2-2h20.7c1.2 0 2 0.9 2 2zm0 8.5c0 1.1-0.8 2-2 2h-20.7c-1.1 0-2-0.9-2-2 0-1.1 0.9-2 2-2h20.7c1.2 0 2 0.9 2 2z"/>
	</g>
</svg>